<?xml version="1.0" encoding="UTF-8"?>
<svg version="1.1" xmlns="http://www.w3.org/2000/svg" width="860" height="277">
<path d="M0 0 C1.25024397 0.00082832 2.50048794 0.00165665 3.78861809 0.00251007 C4.73607462 0.00357506 5.68353115 0.00464005 6.65969849 0.0057373 C6.68248863 29.03456598 6.70019654 58.06339378 6.71076382 87.0922296 C6.71201459 90.51579143 6.71330891 93.93935324 6.71463013 97.36291504 C6.71502359 98.38531183 6.71502359 98.38531183 6.71542501 99.42836309 C6.71978174 110.47898399 6.72766931 121.52959971 6.73685128 132.58021753 C6.74618773 143.91085662 6.75167918 155.24149186 6.75378698 166.57213503 C6.75509452 172.93987414 6.75818307 179.30760149 6.76542854 185.67533684 C6.7721848 191.66126247 6.77431626 197.64717143 6.77280617 203.63310051 C6.77308267 205.83704723 6.77509013 208.04099446 6.77890396 210.2449379 C6.78383504 213.23988654 6.78269895 216.23477113 6.779953 219.22972107 C6.78432227 220.55605612 6.78432227 220.55605612 6.7887798 221.90918583 C6.7738197 227.89161609 6.7738197 227.89161609 5.65969849 229.0057373 C3.60117205 229.30619842 1.53369719 229.54572983 -0.53561401 229.75964355 C-1.80920776 229.89177246 -3.08280151 230.02390137 -4.39498901 230.16003418 C-5.39804077 230.26046021 -5.39804077 230.26046021 -6.4213562 230.36291504 C-8.43666898 230.56536106 -10.45097084 230.77618946 -12.46530151 230.98815918 C-18.49628573 231.60399912 -24.25849974 232.0057373 -30.34030151 232.0057373 C-30.83530151 150.3307373 -30.83530151 150.3307373 -31.34030151 67.0057373 C-39.47998358 118.55299263 -39.47998358 118.55299263 -47.61520386 170.10095215 C-49.19308472 180.08508301 -49.19308472 180.08508301 -49.9329834 184.76345825 C-50.44806 188.02119544 -50.9619916 191.279111 -51.47521973 194.53713989 C-52.13122771 198.70130395 -52.78922109 202.86514983 -53.44861341 207.02877927 C-53.68945246 208.55166133 -53.92961162 210.07465112 -54.16898799 211.59776378 C-55.40099883 219.43435225 -56.68720111 227.24492124 -58.34030151 235.0057373 C-69.33554289 236.74875164 -80.21890319 238.35984028 -91.34030151 239.0057373 C-94.88332499 221.44995014 -97.66097569 203.78473045 -100.40606689 186.09125519 C-100.97492218 182.42909999 -101.5476882 178.76756016 -102.12008667 175.10595703 C-103.78065989 164.46898177 -105.4351254 153.83105373 -107.09030151 143.1932373 C-110.80280151 119.3713623 -114.51530151 95.5494873 -118.34030151 71.0057373 C-118.67030151 127.4357373 -119.00030151 183.8657373 -119.34030151 242.0057373 C-130.62122058 243.99648773 -141.96353604 245.66729431 -153.34030151 247.0057373 C-153.34030151 165.8257373 -153.34030151 84.6457373 -153.34030151 1.0057373 C-135.19030151 1.0057373 -117.04030151 1.0057373 -98.34030151 1.0057373 C-97.0724843 5.44309755 -96.04493332 9.19742424 -95.40539551 13.6592865 C-95.24855789 14.73647949 -95.09172028 15.81367249 -94.93013 16.92350769 C-94.7659407 18.08558243 -94.6017514 19.24765717 -94.43258667 20.44494629 C-94.25340195 21.68513519 -94.07421722 22.9253241 -93.88960266 24.20309448 C-93.50168379 26.89275877 -93.11552278 29.58260532 -92.73237991 32.27294731 C-92.12281031 36.55284949 -91.50621991 40.83172289 -90.88873291 45.11048889 C-89.79758281 52.67772796 -88.71238053 60.24581106 -87.62844849 67.81408691 C-86.00629952 79.13977573 -84.37896627 90.46471892 -82.74694097 101.78898865 C-82.13808311 106.01521707 -81.53211309 110.24184601 -80.92841709 114.46881467 C-78.61021907 130.68563537 -76.1277963 146.86248785 -73.34030151 163.0057373 C-73.22876299 162.23766345 -73.11722446 161.4695896 -73.00230598 160.67824078 C-70.28331864 141.9557683 -67.56215521 123.23361327 -64.83859444 104.51180553 C-63.5215329 95.45793476 -62.20519756 86.40395954 -60.89059448 77.34973145 C-59.7442671 69.4545025 -58.59655403 61.55947642 -57.44720352 53.66468698 C-56.83915511 49.48772053 -56.23178276 45.3106584 -55.62607193 41.13335228 C-55.05486611 37.19416577 -54.48179499 33.25525497 -53.90734863 29.31653976 C-53.6978716 27.87802096 -53.4890514 26.43940631 -53.28097153 25.00068474 C-52.11919371 16.97078421 -50.86416019 8.97544596 -49.34030151 1.0057373 C-43.61525731 0.86109165 -37.89016116 0.71878083 -32.16500854 0.57849121 C-30.22358696 0.53060645 -28.2821801 0.48212 -26.34078979 0.4329834 C-23.52556099 0.36184043 -20.71028357 0.29297341 -17.89498901 0.2244873 C-17.04854828 0.20261353 -16.20210754 0.18073975 -15.33001709 0.15820312 C-10.21909466 0.03636127 -5.11246529 -0.00440437 0 0 Z " fill="#FF0000" transform="translate(165.34030151367188,12.9942626953125)"/>
<path d="M0 0 C10.92514874 9.29284101 16.39219751 19.78925454 18.453125 33.99609375 C18.5428317 35.9142915 18.58769691 37.83497903 18.59356689 39.75526428 C18.59927704 40.88063599 18.60498718 42.00600769 18.61087036 43.16548157 C18.61254715 44.99601326 18.61254715 44.99601326 18.61425781 46.86352539 C18.62170517 48.80861496 18.62170517 48.80861496 18.62930298 50.79299927 C18.64237641 54.34092387 18.64886252 57.88882959 18.65331364 61.43677449 C18.65625376 63.65909464 18.6603604 65.88140975 18.66481781 68.10372734 C18.67848211 75.07319967 18.68815285 82.04266032 18.6920197 89.0121451 C18.69649193 97.02639114 18.71400537 105.0404659 18.7430203 113.0546599 C18.76472848 119.26894886 18.7747289 125.48318996 18.77606082 131.69751638 C18.77710273 135.3995931 18.78287775 139.1015086 18.80088043 142.803545 C18.82062132 146.94343351 18.81603602 151.08296976 18.80957031 155.22290039 C18.8187851 156.42908524 18.82799988 157.63527008 18.8374939 158.87800598 C18.7862831 169.40779796 17.34087448 179.6821088 12.078125 188.93359375 C11.23121094 190.46306641 11.23121094 190.46306641 10.3671875 192.0234375 C3.18018594 203.18529094 -7.78346981 210.59480946 -20.546875 213.99609375 C-21.61808594 214.29257813 -22.68929687 214.5890625 -23.79296875 214.89453125 C-31.53082639 216.74212486 -38.92653287 217.27388548 -46.859375 217.30859375 C-47.76598877 217.31407227 -48.67260254 217.31955078 -49.60668945 217.32519531 C-59.27658773 217.22295229 -67.96940373 215.54154947 -76.546875 210.99609375 C-77.67609375 210.39861328 -77.67609375 210.39861328 -78.828125 209.7890625 C-88.78766632 203.87132134 -94.72395613 194.0641717 -97.546875 182.99609375 C-99.37367054 174.87638099 -99.83898607 167.09777824 -99.8215332 158.79223633 C-99.82664413 157.51910583 -99.83175507 156.24597534 -99.83702087 154.93426514 C-99.85029583 151.47317899 -99.85100223 148.01220281 -99.84845757 144.5510962 C-99.8473794 141.64420963 -99.85229296 138.73734455 -99.857063 135.83046263 C-99.86811972 128.96077023 -99.86861812 122.09113252 -99.86254883 115.22143555 C-99.85652011 108.17721652 -99.86880078 101.1331978 -99.8901189 94.08901292 C-99.90784334 88.00450218 -99.91371909 81.92005456 -99.91048115 75.83551902 C-99.90868438 72.21782868 -99.91114056 68.60028105 -99.92519569 64.98261452 C-100.08452147 20.02470742 -100.08452147 20.02470742 -84.984375 3.55859375 C-63.86910219 -15.89305151 -22.7318627 -17.88565271 0 0 Z M-54.546875 25.99609375 C-58.73051146 31.14518478 -59.6676923 35.07163139 -59.68731689 41.55513 C-59.69302704 42.68642334 -59.69873718 43.81771667 -59.70462036 44.98329163 C-59.70573822 46.22026291 -59.70685608 47.45723419 -59.70800781 48.73168945 C-59.71297272 50.03776154 -59.71793762 51.34383362 -59.72305298 52.68948364 C-59.73615484 56.2701806 -59.74261758 59.85085883 -59.74706364 63.43157601 C-59.74999788 65.67025455 -59.75410334 67.90892801 -59.75856781 70.14760399 C-59.77223677 77.15658205 -59.78190643 84.16554845 -59.7857697 91.17453891 C-59.79024943 99.25678485 -59.80779581 107.33886159 -59.8367703 115.42105609 C-59.85840742 121.67427646 -59.86847506 127.92744929 -59.86981082 134.18070668 C-59.87085738 137.91280229 -59.87673324 141.64473872 -59.89463043 145.37679482 C-59.91421718 149.54207201 -59.90981408 153.70699626 -59.90332031 157.87231445 C-59.9125351 159.10321304 -59.92174988 160.33411163 -59.9312439 161.60231018 C-59.89740086 168.52844406 -59.75677082 174.2679335 -55.046875 179.73828125 C-49.19896995 184.15466787 -44.67414655 184.553073 -37.546875 183.99609375 C-32.71584145 183.09835838 -28.88327458 181.83985203 -25.609375 178.05859375 C-20.18296392 170.00119548 -20.39781294 162.4805086 -20.40161133 152.9831543 C-20.39825272 151.77753845 -20.3948941 150.57192261 -20.39143372 149.32977295 C-20.38357806 146.03415518 -20.3802571 142.73860043 -20.37961793 139.44297767 C-20.37890533 137.38015777 -20.37676704 135.31734441 -20.37412071 133.25452614 C-20.36487877 126.04703988 -20.36078434 118.83957207 -20.36157227 111.63208008 C-20.36217258 104.9315331 -20.35162689 98.23106675 -20.3358286 91.53054017 C-20.32271852 85.76301882 -20.31738983 79.99552371 -20.31802768 74.22798759 C-20.31828167 70.78988386 -20.31548547 67.35185183 -20.30484962 63.91376305 C-20.2950279 60.07484668 -20.29793661 56.23613665 -20.30395508 52.3972168 C-20.29833557 51.27015823 -20.29271606 50.14309967 -20.28692627 48.98188782 C-20.17841925 37.20930886 -20.17841925 37.20930886 -25.359375 27.05859375 C-25.84019531 26.51332031 -26.32101562 25.96804687 -26.81640625 25.40625 C-34.2091938 19.38187911 -47.25741255 20.14297858 -54.546875 25.99609375 Z " fill="#FF0000" transform="translate(296.546875,21.00390625)"/>
<path d="M0 0 C13.2 0 26.4 0 40 0 C41.26819035 8.19063954 42.53506152 16.38147397 43.79875565 24.57280731 C44.01547454 25.97756379 44.23223804 27.3823134 44.44904709 28.78705597 C47.59264339 49.15737762 50.68944965 69.53441458 53.74609375 89.91796875 C54.06562704 92.04760325 54.38516642 94.17723684 54.70471191 96.30686951 C56.13260285 105.82584571 57.5585482 115.34510382 58.97856426 124.86525822 C59.57350861 128.85051554 60.1705695 132.83545385 60.76811409 136.82032204 C61.04841326 138.6930674 61.32773766 140.56595893 61.60604668 142.43900108 C61.98827359 145.01097365 62.37375454 147.58243839 62.76000977 150.15380859 C62.87163515 150.91065791 62.98326054 151.66750723 63.09826851 152.44729137 C63.54657566 155.41274497 64.04923854 158.14771562 65 161 C65.12276778 160.18240015 65.24553556 159.3648003 65.37202358 158.5224247 C68.35605138 138.65121064 71.34383326 118.78056425 74.33582211 98.91054726 C75.78261897 89.30164498 77.22813297 79.69255296 78.6706543 70.08300781 C79.92759424 61.70975941 81.18691333 53.33687294 82.44912058 44.96441686 C83.11769379 40.52907692 83.78505398 36.09356195 84.44956779 31.65761185 C85.07452518 27.48597618 85.70265234 23.31483039 86.33325768 19.14404488 C86.56463237 17.60991076 86.79482928 16.0755985 87.02378464 14.54110146 C87.33559191 12.45250146 87.6515587 10.36457288 87.96861267 8.27676392 C88.14467513 7.10608683 88.32073759 5.93540974 88.50213528 4.72925758 C89 2 89 2 90 0 C101.88 0 113.76 0 126 0 C125.3688953 6.31104705 124.68506098 12.44268197 123.60243225 18.66555786 C123.46414818 19.47700095 123.3258641 20.28844404 123.1833896 21.12447631 C122.7245896 23.81158635 122.2608738 26.49782303 121.79711914 29.18408203 C121.4649561 31.12324145 121.13309049 33.06245185 120.80149841 35.00170898 C119.90386072 40.24584733 119.00185664 45.4892258 118.09888005 50.73244715 C117.15276064 56.22961923 116.21012409 61.72738867 115.26695251 67.22506714 C113.68312651 76.45369362 112.09643153 85.6818234 110.50805664 94.90966797 C108.67335053 105.56883001 106.84332066 116.22878694 105.01576144 126.88917649 C103.25497175 137.15937543 101.4907465 147.42898142 99.7250042 157.69832993 C98.97470876 162.0623639 98.22563541 166.42660502 97.47755623 170.79101944 C96.59633023 175.93135433 95.71209921 181.07116353 94.82557106 186.21058655 C94.50122929 188.09374501 94.17791451 189.97708068 93.85571671 191.86060715 C93.41481354 194.43703602 92.97014707 197.01278859 92.52455139 199.58840942 C92.33587473 200.69883517 92.33587473 200.69883517 92.14338642 201.83169377 C91.30944584 206.62081911 90.22513424 211.29525714 89 216 C56.09404361 217.15287361 56.09404361 217.15287361 40.82501221 217.03062439 C38.93163116 217.01546532 38.93163116 217.01546532 37 217 C34.32838453 203.93986405 31.86487749 190.86271593 29.62426758 177.72216797 C29.31026046 175.89306297 28.99601867 174.06399825 28.68156433 172.23497009 C27.84030272 167.33732442 27.00251992 162.43909009 26.16562486 157.54069662 C25.46334125 153.43218725 24.75929368 149.32398093 24.05526179 145.21577084 C22.39475314 135.52611346 20.737083 125.83597355 19.08129883 116.14550781 C17.37752383 106.17444506 15.66916711 96.20417501 13.95854837 86.23428428 C12.48333209 77.63550051 11.01080824 69.03625868 9.54046172 60.43664086 C8.66504789 55.31671398 7.78866625 50.19695785 6.90973854 45.0776329 C6.08497877 40.2730423 5.26360232 35.46788513 4.44478035 30.66227913 C4.14485192 28.90534419 3.84376011 27.14860737 3.54138565 25.39209175 C3.12710034 22.98433296 2.71713481 20.57587518 2.30818176 18.16720581 C2.18931274 17.48236929 2.07044371 16.79753277 1.9479726 16.09194362 C1.04247752 10.71596578 0.54634814 5.46348139 0 0 Z " fill="#FF0000" transform="translate(330,13)"/>
<path d="M0 0 C13.86 0 27.72 0 42 0 C46.24260872 13.60560728 50.46493538 27.21579867 54.609375 40.8515625 C54.91978729 41.87283234 55.23019958 42.89410217 55.55001831 43.94631958 C57.10663296 49.06984262 58.66106587 54.19401977 60.21337891 59.31884766 C60.7958866 61.23861036 61.37840565 63.15836962 61.9609375 65.078125 C62.22316101 65.94595612 62.48538452 66.81378723 62.7555542 67.70791626 C64.41416045 73.17007076 66.16654064 78.59402934 68 84 C69.9199849 77.83436203 71.83629634 71.66759045 73.75 65.5 C74.18318542 64.10406616 74.18318542 64.10406616 74.62512207 62.67993164 C79.6192455 46.57372835 84.50148443 30.43589654 89.30371094 14.27148438 C89.54589355 13.45856934 89.78807617 12.6456543 90.03759766 11.80810547 C90.48975452 10.29003711 90.94036789 8.77150785 91.38916016 7.25244141 C92.88762168 2.22475665 92.88762168 2.22475665 94 0 C106.54 0 119.08 0 132 0 C131.29998888 4.90007781 130.62935115 8.61043919 129.10498047 13.17089844 C128.71248611 14.35444916 128.31999176 15.53799988 127.91560364 16.75741577 C127.48296948 18.04145988 127.0501589 19.32544456 126.6171875 20.609375 C126.16565438 21.96230048 125.71458968 23.31538236 125.26396179 24.66860962 C124.0580661 28.28410228 122.84428113 31.89689825 121.62852859 35.50908661 C120.87400497 37.75295912 120.12176484 39.99758376 119.37033081 42.24249268 C112.13114789 63.86897731 104.77540461 85.45260756 97.19140625 106.9609375 C96.8524297 107.94388385 96.8524297 107.94388385 96.50660515 108.9466877 C95.16470761 112.80805276 93.76460953 116.6168082 92.18881226 120.38925171 C86.71241944 133.92654021 85.99776104 146.2245181 86.09765625 160.703125 C86.08824609 163.00626017 86.07577302 165.30938464 86.06040955 167.61248779 C86.02849854 173.6031536 86.0375108 179.59304547 86.05578613 185.58374023 C86.06703269 191.72518024 86.03855542 197.86643143 86.01367188 204.0078125 C85.97078868 216.00534592 85.97124602 228.00243894 86 240 C80.78510256 239.4529243 75.57069378 238.90147064 70.35668945 238.34594727 C68.58272861 238.15756635 66.80864003 237.97038428 65.03442383 237.78442383 C62.48484349 237.51698533 59.93575297 237.24524469 57.38671875 236.97265625 C56.59287277 236.89032242 55.79902679 236.80798859 54.98112488 236.72315979 C51.83795975 236.38357477 49.00933192 236.00311064 46 235 C46.03410477 233.85981415 46.06820953 232.7196283 46.10334778 231.54489136 C47.6608474 177.11707997 48.86486115 127.88118003 26.71582031 77.36816406 C22.82006423 68.41321496 19.76586161 59.18242727 16.67221069 49.92733765 C15.22179552 45.6182333 13.71274726 41.33023482 12.19921875 37.04296875 C11.92513687 36.26458145 11.65105499 35.48619415 11.3686676 34.68421936 C9.6301353 29.75607588 7.86577066 24.83772972 6.08203125 19.92578125 C5.43379395 18.13974487 5.43379395 18.13974487 4.77246094 16.31762695 C3.99857649 14.19569075 3.21975223 12.07554547 2.43457031 9.95776367 C2.10682617 9.06420166 1.77908203 8.17063965 1.44140625 7.25 C1.15982666 6.49203125 0.87824707 5.7340625 0.58813477 4.953125 C0 3 0 3 0 0 Z " fill="#FF0000" transform="translate(717,14)"/>
<path d="M0 0 C95 0 95 0 102 1 C102 12.22 102 23.44 102 35 C81.54 34.67 61.08 34.34 40 34 C39.67 53.8 39.34 73.6 39 94 C51.33938481 94.28813188 51.33938481 94.28813188 63.67895508 94.56811523 C65.25082087 94.60631838 66.82268007 94.64479399 68.39453125 94.68359375 C69.57323792 94.7083075 69.57323792 94.7083075 70.77575684 94.73352051 C76.91533969 94.89027182 82.84618134 95.44056194 89 96 C89 107.22 89 118.44 89 130 C72.83 129.34 56.66 128.68 40 128 C39.67 160.01 39.34 192.02 39 225 C8 223 8 223 0 222 C0 148.74 0 75.48 0 0 Z " fill="#FF0000" transform="translate(608,13)"/>
<path d="M0 0 C12.87 0 25.74 0 39 0 C39 72.6 39 145.2 39 220 C25.9957272 220 12.99199883 219.56486951 0 219 C0 146.73 0 74.46 0 0 Z " fill="#FF0000" transform="translate(541,13)"/>
<path d="M0 0 C12.87 0 25.74 0 39 0 C39 71.61 39 143.22 39 217 C26.13 217 13.26 217 0 217 C0 145.39 0 73.78 0 0 Z " fill="#FF0000" transform="translate(474,13)"/>
</svg>
